<?xml version="1.0" standalone="no"?>
<!DOCTYPE svg PUBLIC "-//W3C//DTD SVG 20010904//EN"
 "http://www.w3.org/TR/2001/REC-SVG-20010904/DTD/svg10.dtd">
<svg version="1.0" xmlns="http://www.w3.org/2000/svg"
 width="226.000000pt" height="226.000000pt" viewBox="0 0 226.000000 226.000000"
 preserveAspectRatio="xMidYMid meet">

<g transform="translate(0.000000,226.000000) scale(0.100000,-0.100000)"
fill="#306bff" stroke="none">
<path d="M1001 2229 c-168 -20 -347 -86 -491 -182 -96 -64 -243 -211 -307
-307 -141 -211 -210 -480 -183 -716 30 -271 134 -490 324 -680 191 -191 408
-294 680 -325 236 -26 505 44 716 184 96 64 243 211 307 307 140 211 210 480
184 716 -31 272 -134 489 -325 680 -187 187 -408 294 -671 324 -101 11 -129
11 -234 -1z m186 -865 c164 -119 304 -219 311 -221 6 -3 12 -11 12 -18 0 -7
-6 -15 -12 -18 -7 -2 -147 -102 -311 -221 -164 -119 -300 -216 -303 -216 -2 0
-4 205 -4 455 0 250 2 455 4 455 3 0 139 -97 303 -216z"/>
</g>
</svg>
